<svg width="64" height="64" viewBox="0 0 60 60" fill="none" xmlns="http://www.w3.org/2000/svg">
  <defs>
    <linearGradient id="logoGrad" x1="0%" y1="0%" x2="100%" y2="100%">
      <stop offset="0%" stop-color="#10B981" />
      <stop offset="100%" stop-color="#06B6D4" />
    </linearGradient>
  </defs>

  <!-- Outer soft-green leaf silhouette -->
  <path d="M30 8C42 8 50 18 50 32C50 44 42 52 30 52C18 52 10 44 10 32C10 18 18 8 30 8Z" fill="url(#logoGrad)" fill-opacity="0.12" />

  <!-- Interlocking circular eco/tracking loops -->
  <path d="M30 12C38 12 44 18 44 28C44 38 34 48 30 48" stroke="#10B981" stroke-width="3" stroke-linecap="round" fill="none" />
  <path d="M30 48C22 48 16 42 16 32C16 22 26 12 30 12" stroke="#06B6D4" stroke-width="3" stroke-linecap="round" fill="none" />

  <!-- Central barcode lines -->
  <rect x="25" y="24" width="2" height="12" fill="#64748b" opacity="0.8" />
  <rect x="29" y="24" width="3.5" height="12" fill="#64748b" opacity="0.8" />
  <rect x="35" y="24" width="1.5" height="12" fill="#64748b" opacity="0.8" />

  <!-- Scanning red line -->
  <line x1="20" y1="30" x2="40" y2="30" stroke="#ef4444" stroke-width="1.5" stroke-linecap="round" />
</svg>
